<svg width="64" height="64" viewBox="0 0 64 64" fill="none" xmlns="http://www.w3.org/2000/svg">
<rect x="0.5" y="0.5" width="63" height="63" rx="3.5" fill="white" stroke="#B991FF"/>
<path d="M51.2032 20.3091H12.7968C12.3568 20.3091 12 20.6658 12 21.1059V42.894C12 43.3341 12.3568 43.6908 12.7968 43.6908H51.2032C51.6432 43.6908 52 43.3341 52 42.894V21.1059C52 20.6658 51.6432 20.3091 51.2032 20.3091ZM50.4064 42.0973H13.5936V21.9027H50.4063L50.4064 42.0973Z" fill="#B991FF"/>
<path d="M46.7678 36.4845H36.2973C35.8573 36.4845 35.5005 36.8412 35.5005 37.2813C35.5005 37.7214 35.8572 38.0781 36.2973 38.0781H46.7678C47.2078 38.0781 47.5646 37.7214 47.5646 37.2813C47.5646 36.8412 47.2078 36.4845 46.7678 36.4845Z" fill="#B991FF"/>
<path d="M46.7678 31.3682H36.2973C35.8573 31.3682 35.5005 31.7249 35.5005 32.165C35.5005 32.605 35.8572 32.9618 36.2973 32.9618H46.7678C47.2078 32.9618 47.5646 32.605 47.5646 32.165C47.5646 31.7249 47.2078 31.3682 46.7678 31.3682Z" fill="#B991FF"/>
<path d="M46.8108 26.2518H46.1833C45.7433 26.2518 45.3865 26.6085 45.3865 27.0486C45.3865 27.4887 45.7433 27.8454 46.1833 27.8454H46.8108C47.2508 27.8454 47.6076 27.4887 47.6076 27.0486C47.6076 26.6086 47.2508 26.2518 46.8108 26.2518Z" fill="#B991FF"/>
<path d="M43.1555 26.2518H36.2973C35.8573 26.2518 35.5005 26.6085 35.5005 27.0486C35.5005 27.4887 35.8572 27.8454 36.2973 27.8454H43.1555C43.5955 27.8454 43.9523 27.4887 43.9523 27.0486C43.9523 26.6086 43.5955 26.2518 43.1555 26.2518Z" fill="#B991FF"/>
<path d="M24.5773 32.7855C20.1687 32.7855 16.582 35.7318 16.582 39.353C16.582 39.7931 16.9388 40.1498 17.3788 40.1498H31.7759C32.2159 40.1498 32.5727 39.7931 32.5727 39.353C32.5727 35.7316 28.9861 32.7855 24.5773 32.7855ZM18.2577 38.5563C18.7051 36.407 20.9314 34.7149 23.7211 34.4239V36.2001C23.7211 36.6401 24.0779 36.9969 24.5179 36.9969C24.9579 36.9969 25.3147 36.6401 25.3147 36.2001V34.4133C28.1596 34.6681 30.4434 36.3766 30.897 38.5563H18.2577Z" fill="#B991FF"/>
<path d="M24.5099 23.7244C22.2252 23.7244 20.3665 25.5831 20.3665 27.8678C20.3665 30.1525 22.2252 32.0112 24.5099 32.0112C26.7946 32.0112 28.6533 30.1525 28.6533 27.8678C28.6533 25.5831 26.7946 23.7244 24.5099 23.7244ZM24.5099 30.4176C23.1039 30.4176 21.9601 29.2737 21.9601 27.8678C21.9601 26.4619 23.104 25.318 24.5099 25.318C25.9158 25.318 27.0597 26.4619 27.0597 27.8678C27.0597 29.2737 25.9158 30.4176 24.5099 30.4176Z" fill="#B991FF"/>
</svg>
